# xmcd
#
# Track frame offsets: 
#        182
#        690
#        25832
#        27857
#        48507
#        73715
#        96200
#        112145
#        132307
#        134317
#        153107
#        173252
#        198732
#        218207
#        222095
#        234165
#        251717
#        277155
#        280945
#        307130
#        320870
#        337325
#        337860
#
# Disc length: 4510 seconds
#
# Revision: 0
# Processed by: cddbd v1.5.2PL0 Copyright (c) Steve Scherf et al.
# Submitted via: ExactAudioCopyFreeDBPlugin 1.0
#
DISCID=5f119c17
DTITLE=Various Artist - The Journey Continues . . . Celebrate Black M
DTITLE=usic
DYEAR=1995
DGENRE=Rhythm and Blues
TTITLE0=Richard Pryor - Heartbrain (segment)
TTITLE1=Brothers Johnson - Ain't We Funkin' Now
TTITLE2=Richard Pryor - Bad Breath
TTITLE3=Roy Ayers - Freaky Deaky
TTITLE4=The Dells - Passionate Breezes
TTITLE5=Rene and Angela - Your Smile
TTITLE6=Dazz Band - Swoop
TTITLE7=Ohio Players - Who'd She Coo?
TTITLE8=Redd Foxx - Tarzan's Yell (Part I)
TTITLE9=Quincy Jones - Ai No Corrida
TTITLE10=Randy Weston - High Fly
TTITLE11=Lo-Key? - I Got a Thang for Ya
TTITLE12=Gladys Knight - Neither One of Us
TTITLE13=Redd Foxx - Tarzan Yell (Part II)
TTITLE14=Marvin Gaye - Come Get to This
TTITLE15=Slick Rick - Children's Story
TTITLE16=Hawkins Family - Until I Found the Lord
TTITLE17=Richard Pryor - Rubber Things (Part I)
TTITLE18=Mint Conditon - Pretty Brown Eyes
TTITLE19=Charlie Parker - Now's the Time
TTITLE20=LL Cool J - Rock the Bells
TTITLE21=Redd Foxx - International Redd
TTITLE22=Richard Pryor - Rubber Things (Part II)
EXTD=
EXTT0=
EXTT1=
EXTT2=
EXTT3=
EXTT4=
EXTT5=
EXTT6=
EXTT7=
EXTT8=
EXTT9=
EXTT10=
EXTT11=
EXTT12=
EXTT13=
EXTT14=
EXTT15=
EXTT16=
EXTT17=
EXTT18=
EXTT19=
EXTT20=
EXTT21=
EXTT22=
PLAYORDER=
